<?xml version="1.0" encoding="utf-8"?>
<!-- Generator: Adobe Illustrator 22.0.1, SVG Export Plug-In . SVG Version: 6.00 Build 0)  -->
<!DOCTYPE svg PUBLIC "-//W3C//DTD SVG 1.1//EN" "http://www.w3.org/Graphics/SVG/1.1/DTD/svg11.dtd">
<svg version="1.1" xmlns="http://www.w3.org/2000/svg" xmlns:xlink="http://www.w3.org/1999/xlink" x="0px" y="0px"
	 viewBox="0 0 1608.1 396.7" enable-background="new 0 0 1608.1 396.7" xml:space="preserve">
<g id="rectangle">
</g>
<g id="Curve">
</g>
<g id="Circle">
</g>
<g id="Line" display="none">
</g>
<g id="Layer_5">
</g>
<g id="Layer_6">
</g>
<g id="Layer_7">
</g>
<g id="Layer_8">
	<g>
		<path d="M141.5,381.5c-50.9,0-94.6-16.8-129.9-50l19.4-20.6c30.4,28.5,66.5,42.3,110.6,42.3c15,0,28.7-1.6,40.7-4.8
			c11.5-3,21.5-7.5,29.6-13.3c7.8-5.6,13.6-12.3,17.9-20.5c4.2-8.1,6.3-17.9,6.3-29.2c0-11.2-2-20.5-5.8-27.7
			c-3.9-7.3-9.5-13.4-17-18.6c-8.1-5.6-18.2-10.3-30.1-14.1c-12.8-4.1-27.3-7.8-43-11.2l-0.2,0l-14.9-3.4
			c-16.5-3.5-31.9-7.5-45.5-11.9c-14.5-4.6-27.2-10.6-37.6-17.7c-11.1-7.7-19.8-17.2-25.8-28.5c-6.1-11.4-9.2-25.2-9.2-41.1
			c0-15.9,3.2-30.1,9.5-42.2c6.3-12.1,15.2-22.4,26.6-30.5c10.9-7.8,24-13.7,38.9-17.6c14.4-3.8,30.5-5.7,47.9-5.7
			c50.9,0,94.6,16.8,129.9,50l-19.4,20.6C210.1,57.3,174,43.5,129.9,43.5c-15,0-28.7,1.6-40.7,4.8c-11.5,3-21.5,7.5-29.6,13.3
			C51.8,67.1,46,73.8,41.7,82c-4.2,8.1-6.3,17.9-6.3,29.2c0,11.2,2,20.5,5.8,27.7c3.9,7.3,9.5,13.4,17,18.6
			c8.1,5.6,18.2,10.3,30.1,14.1c12.8,4.1,27.3,7.8,43,11.2l0.2,0l14.9,3.4c16.5,3.5,31.9,7.5,45.5,11.9
			c14.5,4.6,27.2,10.6,37.6,17.7c11.1,7.7,19.8,17.2,25.8,28.5c6.1,11.4,9.2,25.2,9.2,41.1c0,15.9-3.2,30.1-9.5,42.2
			c-6.3,12.1-15.2,22.4-26.6,30.5c-10.9,7.8-24,13.7-38.9,17.6C175,379.6,158.9,381.5,141.5,381.5z"/>
		<path d="M593.6,43.5H456.2v338h-28.3v-338H290.6V15.2h303.1V43.5z"/>
		<path d="M1066.5,381.5c-25.8,0-49.9-5.6-71.4-16.6c-21.1-10.8-39.6-25-55-42.4c-15.3-17.3-27.4-37.2-35.9-59.2
			c-8.5-22-12.9-44.8-12.9-67.8c0-21.6,4-43.4,11.8-64.7c7.9-21.5,19.5-40.9,34.6-57.8c15.1-17,33.9-30.9,55.7-41.6
			c22.1-10.8,47.5-16.2,75.5-16.2c33.4,0,62.4,7.6,86.3,22.6c23.9,15,42,34.5,53.8,58l-25.3,12.7c-9.5-18.8-24.1-34.6-43.5-46.7
			c-19.3-12.1-43.3-18.3-71.3-18.3c-23.7,0-44.9,4.5-63.1,13.4c-18.5,9-34.3,20.8-47,35c-12.7,14.2-22.5,30.6-29.2,48.8
			c-6.7,18.2-10.1,36.7-10.1,55c0,19.4,3.7,38.8,11,57.6c7.3,18.8,17.6,35.9,30.7,50.7c13,14.7,28.7,26.8,46.7,36
			c17.5,8.9,37.2,13.5,58.5,13.5c12.1,0,24.7-1.5,37.3-4.5c12.5-3,24.6-7.5,35.8-13.5c11.1-5.9,21.3-13.4,30.4-22.1
			c8.8-8.4,15.8-18.2,20.8-29.1l25.6,12c-6.5,14-15.6,26.7-26.8,37.5c-11,10.6-23.3,19.6-36.7,26.7c-13.3,7.1-27.7,12.5-42.5,16.1
			C1095.6,379.7,1080.8,381.5,1066.5,381.5z"/>
		<line fill="none" stroke="#BE1E2D" stroke-width="1.6033" stroke-miterlimit="10" x1="698.8" y1="353.2" x2="698.8" y2="353.2"/>
		<g>
			<polygon fill="#35BBA2" points="716.9,15.2 699,15.2 655.5,106.8 686.8,106.8 708,62.3 750.9,152.5 782.2,152.5 			"/>
			<polygon fill="#35BBA2" points="825.8,244.1 794.5,244.1 859.8,381.5 891.1,381.5 			"/>
			<polygon fill="#35BBA2" points="569.7,353.2 665.1,152.5 633.7,152.5 524.9,381.5 685.4,381.5 698.8,353.2 			"/>
		</g>
		<g>
			<path d="M1575,17h-8.9v21.1h-1.9V17h-9v-1.8h19.8V17z"/>
			<path d="M1599,38.1V18.8l-9.5,15h-1.2l-9.6-15v19.3h-1.9V15.2h2l10.1,16l10.1-16h2v22.9H1599z"/>
		</g>
		<polygon points="1573.2,381.5 1394,153.6 1529.2,15.2 1489.6,15.2 1285.9,223.7 1285.9,15.2 1257.6,15.2 1257.6,381.5 
			1285.9,381.5 1285.9,268.5 1285.9,264.2 1374.1,174 1537.2,381.5 		"/>
	</g>
</g>
<g id="Layer_9" display="none">
</g>
</svg>
