<?xml version="1.0" encoding="utf-8"?>
<!-- Generator: Adobe Illustrator 22.0.1, SVG Export Plug-In . SVG Version: 6.00 Build 0)  -->
<!DOCTYPE svg PUBLIC "-//W3C//DTD SVG 1.1//EN" "http://www.w3.org/Graphics/SVG/1.1/DTD/svg11.dtd">
<svg version="1.1" xmlns="http://www.w3.org/2000/svg" xmlns:xlink="http://www.w3.org/1999/xlink" x="0px" y="0px"
	 viewBox="0 0 419.4 384.2" enable-background="new 0 0 419.4 384.2" xml:space="preserve">
<g id="rectangle">
</g>
<g id="Curve">
</g>
<g id="Circle">
</g>
<g id="Line" display="none">
</g>
<g id="Layer_5">
</g>
<g id="Layer_6">
	<line fill="none" stroke="#BE1E2D" stroke-width="1.6033" stroke-miterlimit="10" x1="306.1" y1="0" x2="492.9" y2="-392.9"/>
</g>
<g id="Layer_7">
	<g>
		<polygon points="262.5,146.3 231.2,146.3 188.3,56 167.1,100.5 135.8,100.5 169,30.6 172.6,23.1 172.6,23.1 175.3,17.3 
			175.6,16.7 179.3,8.9 197.2,8.9 200.9,16.8 201.2,17.3 203.9,23.1 205.3,26.1 		"/>
		<polygon points="371.4,375.3 340.1,375.3 326.6,347 274.7,237.9 306.1,237.9 358,347 		"/>
		<polygon points="179.1,347 165.7,375.3 5.2,375.3 18.7,347 41.8,298.4 70.5,237.9 114,146.3 145.4,146.3 101.8,237.9 50,347 		"/>
		<g>
			<path d="M398.1,362.4h-5.5v12.9h-1.2v-12.9h-5.6v-1.1h12.3V362.4z"/>
			<path d="M413,375.3v-11.8l-5.9,9.2h-0.7l-5.9-9.2v11.8h-1.2v-14h1.2l6.2,9.8l6.2-9.8h1.2v14H413z"/>
		</g>
	</g>
</g>
<g id="Layer_8">
</g>
<g id="Layer_9" display="none">
</g>
</svg>
