<svg id="Layer_1" data-name="Layer 1" xmlns="http://www.w3.org/2000/svg" viewBox="0 0 1600 370"><defs><style>.cls-1{fill:#231f20;}.cls-2,.cls-3{fill:#fff;}.cls-2{stroke:#be1e2d;stroke-miterlimit:10;stroke-width:1.6px;}</style></defs><title>Stack Logo_2-color Black-White</title><path class="cls-1" d="M1571,3.64h-8.94V24.73h-1.92V3.64h-9V1.84H1571Z"/><path class="cls-1" d="M1595,24.73V5.45l-9.53,15h-1.16l-9.57-15V24.73h-1.91V1.84h2l10.11,16,10.11-16h2V24.73Z"/><path class="cls-1" d="M137.44,368.17c-50.86,0-94.57-16.83-129.93-50l19.36-20.63C57.23,326,93.4,339.87,137.44,339.87a161.06,161.06,0,0,0,40.7-4.77c11.54-3,21.5-7.5,29.61-13.29a57.05,57.05,0,0,0,17.92-20.49c4.19-8.09,6.32-17.91,6.32-29.21s-2-20.54-5.81-27.72a52.29,52.29,0,0,0-17-18.57c-8.07-5.56-18.19-10.3-30.06-14.07-12.81-4.06-27.27-7.82-43-11.19l-.21-.05-14.87-3.42c-16.55-3.55-31.86-7.54-45.5-11.87-14.54-4.61-27.17-10.58-37.56-17.73A81.22,81.22,0,0,1,12.22,139C6.12,127.65,3,113.82,3,97.89s3.2-30.09,9.51-42.24A85.83,85.83,0,0,1,39.14,25.16C50.06,17.37,63.13,11.44,78,7.53a189.11,189.11,0,0,1,47.89-5.69c50.86,0,94.58,16.82,129.94,50L236.46,72.48C206.1,44,169.93,30.14,125.89,30.14a161.14,161.14,0,0,0-40.7,4.76c-11.53,3-21.5,7.5-29.61,13.3A56.89,56.89,0,0,0,37.66,68.69c-4.19,8.08-6.32,17.91-6.32,29.2s1.95,20.54,5.81,27.73a52.26,52.26,0,0,0,17,18.56c8.08,5.57,18.19,10.3,30.06,14.07,12.81,4.06,27.27,7.83,43,11.19l.21.05,14.88,3.42c16.54,3.55,31.85,7.54,45.5,11.87,14.53,4.62,27.16,10.58,37.55,17.74A81.17,81.17,0,0,1,251.12,231c6.09,11.35,9.17,25.18,9.17,41.11s-3.2,30.09-9.51,42.25a85.7,85.7,0,0,1-26.59,30.48c-10.91,7.79-24,13.73-38.86,17.63A189.1,189.1,0,0,1,137.44,368.17Z"/><path class="cls-1" d="M589.57,30.14H452.19v338h-28.3v-338H286.52V1.84H589.57Z"/><path class="cls-1" d="M1062.42,368.16c-25.84,0-49.86-5.57-71.39-16.57a185.68,185.68,0,0,1-55-42.42A195.11,195.11,0,0,1,900.09,250,184.08,184.08,0,0,1,899,117.45a176.38,176.38,0,0,1,90.31-99.4c22.11-10.76,47.53-16.22,75.52-16.22,33.37,0,62.42,7.6,86.34,22.58s42,34.46,53.79,58L1179.7,95.11c-9.47-18.83-24.12-34.55-43.53-46.71s-43.34-18.27-71.32-18.27c-23.67,0-44.91,4.5-63.15,13.37a148,148,0,0,0-76.11,83.7,155.82,155.82,0,0,0,.88,112.54A166.93,166.93,0,0,0,957.2,290.4a157.77,157.77,0,0,0,46.69,36c17.52,8.94,37.21,13.47,58.53,13.47a161.81,161.81,0,0,0,37.35-4.54,150.59,150.59,0,0,0,35.8-13.51A136.06,136.06,0,0,0,1166,299.7a97.89,97.89,0,0,0,20.85-29.13l25.65,12a126,126,0,0,1-26.85,37.54,164.21,164.21,0,0,1-36.74,26.71,178.7,178.7,0,0,1-42.55,16.07A189.66,189.66,0,0,1,1062.42,368.16Z"/><line class="cls-2" x1="694.8" y1="339.87" x2="694.8" y2="339.86"/><polygon class="cls-3" points="712.86 1.83 694.99 1.83 651.45 93.42 682.79 93.42 703.93 48.95 746.86 139.21 778.2 139.21 712.86 1.83"/><polygon class="cls-3" points="821.75 230.79 790.42 230.79 855.75 368.16 887.09 368.16 821.75 230.79"/><polygon class="cls-3" points="565.67 339.86 661.03 139.21 629.69 139.21 520.88 368.16 681.35 368.16 694.8 339.86 565.67 339.86"/><polygon class="cls-1" points="1569.17 368.16 1389.97 140.22 1525.16 1.84 1485.6 1.84 1281.83 210.42 1281.83 1.84 1253.53 1.84 1253.53 368.17 1281.83 368.17 1281.83 255.17 1281.83 250.92 1370.03 160.64 1533.17 368.16 1569.17 368.16"/></svg>